<?xml version="1.0" standalone="no"?><!DOCTYPE svg PUBLIC "-//W3C//DTD SVG 1.1//EN" "http://www.w3.org/Graphics/SVG/1.1/DTD/svg11.dtd"><svg t="1640140848389" class="icon" viewBox="0 0 1024 1024" version="1.1" xmlns="http://www.w3.org/2000/svg" p-id="891" xmlns:xlink="http://www.w3.org/1999/xlink" width="200" height="200"><defs><style type="text/css"></style></defs><path d="M512 0C228.8 0 0 228.8 0 512s228.8 512 512 512 512-228.8 512-512S795.2 0 512 0z m0 976C256 976 48 768 48 512S256 48 512 48s464 208 464 464-208 464-464 464z" fill="#F9AC3E" p-id="892"></path><path d="M512 96C281.6 96 96 281.6 96 512s185.6 416 416 416 416-185.6 416-416S742.4 96 512 96z m209.6 171.2L544 464v28.8h150.4c14.4 0 25.6 11.2 25.6 25.6S707.2 544 692.8 544H544v54.4h150.4c14.4 0 25.6 11.2 25.6 25.6s-11.2 25.6-25.6 25.6H544v124.8-16c0 19.2-16 33.6-33.6 33.6-19.2 0-33.6-16-33.6-33.6v16-124.8H329.6c-14.4 0-25.6-11.2-25.6-25.6s11.2-25.6 25.6-25.6h147.2V544H329.6c-14.4 0-25.6-11.2-25.6-25.6s11.2-25.6 25.6-25.6h147.2V464l-176-196.8s-19.2-52.8 40-35.2c20.8 6.4 36.8 35.2 36.8 35.2l136 145.6 139.2-145.6s16-30.4 40-35.2c54.4-11.2 28.8 35.2 28.8 35.2z" fill="#F9AC3E" p-id="893"></path></svg>